# xmcd
#
# Track frame offsets:
#	150
#	12316
#	29737
#	42563
#	55213
#	69938
#	87286
#	103090
#	117854
#	135907
#	148823
#	165387
#
# Disc length: 2379 seconds
#
# Revision: 0
# Processed by: cddbd v1.5.1PL0 Copyright (c) Steve Scherf et al.
# Submitted via: dBpowerAMP V4.0
#
DISCID=a209490c
DTITLE=Forro Kentao - Forro Kentao com Cicinho do Acordeon
DYEAR=2005
DGENRE=Forro
TTITLE0=Forro sem Fronteira
TTITLE1=E Nao e Pouco
TTITLE2=Moleque de Rua
TTITLE3=Sanduiche da Paixao
TTITLE4=Dissabor
TTITLE5=Saudade Derradeira
TTITLE6=Forro no Cariri
TTITLE7=Sertao Sofrido
TTITLE8=Amor Proibido
TTITLE9=Saudade de Voce
TTITLE10=Chegou Sao Joao
TTITLE11=Tema pra Dominguinho (Instrumental)
EXTD=
EXTT0=
EXTT1=
EXTT2=
EXTT3=
EXTT4=
EXTT5=
EXTT6=
EXTT7=
EXTT8=
EXTT9=
EXTT10=
EXTT11=
PLAYORDER=
